<svg viewBox="0 0 18 18" fill="currentColor" xmlns="http://www.w3.org/2000/svg"><path d="M0.219924 1.28181C0.1502 1.21209 0.0948912 1.12931 0.0571565 1.03821C0.0194218 0.947114 7.34668e-10 0.849474 0 0.750868C-7.34668e-10 0.652263 0.0194218 0.554623 0.0571565 0.463523C0.0948912 0.372424 0.1502 0.289649 0.219924 0.219924C0.289649 0.1502 0.372424 0.0948912 0.463523 0.0571565C0.554623 0.0194218 0.652263 -7.34668e-10 0.750868 0C0.849474 7.34667e-10 0.947114 0.0194218 1.03821 0.0571565C1.12931 0.0948912 1.21209 0.1502 1.28181 0.219924L9 7.93961L16.7182 0.219924C16.7879 0.1502 16.8707 0.0948912 16.9618 0.0571565C17.0529 0.0194218 17.1505 0 17.2491 0C17.3477 0 17.4454 0.0194218 17.5365 0.0571565C17.6276 0.0948912 17.7104 0.1502 17.7801 0.219924C17.8498 0.289649 17.9051 0.372424 17.9428 0.463523C17.9806 0.554623 18 0.652263 18 0.750868C18 0.849474 17.9806 0.947114 17.9428 1.03821C17.9051 1.12931 17.8498 1.21209 17.7801 1.28181L10.0604 9L17.7801 16.7182C17.8498 16.7879 17.9051 16.8707 17.9428 16.9618C17.9806 17.0529 18 17.1505 18 17.2491C18 17.3477 17.9806 17.4454 17.9428 17.5365C17.9051 17.6276 17.8498 17.7104 17.7801 17.7801C17.7104 17.8498 17.6276 17.9051 17.5365 17.9428C17.4454 17.9806 17.3477 18 17.2491 18C17.1505 18 17.0529 17.9806 16.9618 17.9428C16.8707 17.9051 16.7879 17.8498 16.7182 17.7801L9 10.0604L1.28181 17.7801C1.21209 17.8498 1.12931 17.9051 1.03821 17.9428C0.947114 17.9806 0.849474 18 0.750868 18C0.652263 18 0.554623 17.9806 0.463523 17.9428C0.372424 17.9051 0.289649 17.8498 0.219924 17.7801C0.1502 17.7104 0.0948912 17.6276 0.0571565 17.5365C0.0194218 17.4454 0 17.3477 0 17.2491C0 17.1505 0.0194218 17.0529 0.0571565 16.9618C0.0948912 16.8707 0.1502 16.7879 0.219924 16.7182L7.93961 9L0.219924 1.28181Z" fill="currentColor"></path></svg>